<svg width="50" height="50" viewBox="0 0 50 50" fill="none" xmlns="http://www.w3.org/2000/svg">
<path d="M32.8154 4.86999C32.8154 3.49661 31.2777 3.49659 30.5942 3.66827C31.551 2.91291 32.673 3.09604 33.0716 3.32494L42.3112 7.85542C43.1916 8.28711 43.7501 9.18532 43.7501 10.1696V39.9736C43.7501 40.9711 43.1768 41.8789 42.2785 42.3036L33.5842 46.4146C32.9862 46.6721 31.6877 47.3073 30.5942 46.4146C31.9611 46.6721 32.7015 45.6993 32.8154 45.0412V4.86999Z" fill="url(#paint0_linear_96_1037)"/>
<path d="M30.705 3.64342C31.4304 3.50008 32.8153 3.56655 32.8153 4.8699V15.1288L4.80248 36.3206C4.31284 36.691 3.62375 36.6296 3.2067 36.1783L0.319582 33.0542C-0.132712 32.5648 -0.101066 31.7987 0.390037 31.3487L30.5941 3.66818L30.705 3.64342Z" fill="url(#paint1_linear_96_1037)"/>
<path d="M32.8153 34.954L4.80248 13.7622C4.31284 13.3918 3.62375 13.4532 3.2067 13.9045L0.319582 17.0286C-0.132712 17.518 -0.101066 18.2841 0.390037 18.7341L30.5941 46.4146C31.961 46.6721 32.7014 45.6993 32.8153 45.0412V34.954Z" fill="url(#paint2_linear_96_1037)"/>
<defs>
<linearGradient id="paint0_linear_96_1037" x1="37.1722" y1="3.125" x2="37.1722" y2="46.875" gradientUnits="userSpaceOnUse">
<stop stop-color="#32B5F1"/>
<stop offset="1" stop-color="#2B9FED"/>
</linearGradient>
<linearGradient id="paint1_linear_96_1037" x1="32.8153" y1="8.64666" x2="1.59641" y2="34.8516" gradientUnits="userSpaceOnUse">
<stop stop-color="#0F6FB3"/>
<stop offset="0.270551" stop-color="#1279B7"/>
<stop offset="0.421376" stop-color="#1176B5"/>
<stop offset="0.618197" stop-color="#0E69AC"/>
<stop offset="0.855344" stop-color="#0F70AF"/>
<stop offset="1" stop-color="#0F6DAD"/>
</linearGradient>
<linearGradient id="paint2_linear_96_1037" x1="1.80502" y1="15.5995" x2="32.9361" y2="41.376" gradientUnits="userSpaceOnUse">
<stop stop-color="#1791D2"/>
<stop offset="1" stop-color="#1173C5"/>
</linearGradient>
</defs>
</svg>
