<svg width="147" height="32" viewBox="0 0 147 32" fill="none" xmlns="http://www.w3.org/2000/svg">
<path d="M0 6.4C0 2.86538 2.86805 0 6.40596 0H25.6238C29.1618 0 32.0298 2.86538 32.0298 6.4V25.6C32.0298 29.1346 29.1618 32 25.6238 32H6.40596C2.86805 32 0 29.1346 0 25.6V6.4Z" fill="#F16724"/>
<path d="M5.12477 8.32H9.73706V23.68H5.12477V8.32Z" fill="white"/>
<path d="M9.73709 12.8953C11.1504 12.8953 12.5499 13.1742 13.8557 13.7162C15.1613 14.2581 16.3478 15.0525 17.3471 16.0539C18.3465 17.0554 19.1391 18.2443 19.68 19.5528C20.2208 20.8612 20.4991 22.2637 20.4991 23.68H14.3028C14.3028 23.0792 14.1848 22.4842 13.9553 21.9291C13.7259 21.374 13.3895 20.8696 12.9655 20.4448C12.5415 20.0199 12.0382 19.6828 11.4843 19.4529C10.9303 19.223 10.3366 19.1047 9.73709 19.1047V12.8953Z" fill="white" fill-opacity="0.86"/>
<path d="M20.4991 8.32C20.4991 9.73626 20.2208 11.1388 19.68 12.4472C19.1391 13.7557 18.3464 14.9446 17.3471 15.9461C16.3478 16.9475 15.1613 17.7418 13.8556 18.2838C12.5499 18.8258 11.1504 19.1047 9.73709 19.1047V12.8953C10.3366 12.8953 10.9303 12.777 11.4842 12.5471C12.0382 12.3172 12.5415 11.9801 12.9655 11.5552C13.3894 11.1304 13.7259 10.626 13.9553 10.0709C14.1847 9.51577 14.3028 8.92081 14.3028 8.32H20.4991Z" fill="white"/>
<path d="M23.0615 16C23.0615 16.7069 22.4879 17.28 21.7803 17.28C21.0727 17.28 20.4991 16.7069 20.4991 16C20.4991 15.2931 21.0727 14.72 21.7803 14.72C22.4879 14.72 23.0615 15.2931 23.0615 16Z" fill="white"/>
<path d="M24.3427 15.68H26.905V16.32H24.3427V15.68Z" fill="white"/>
<path d="M23.097 18.2661L24.5668 20.3631L25.0915 19.9961L23.6218 17.899L23.097 18.2661Z" fill="white"/>
<path d="M23.0615 13.617L24.5312 11.52L25.0559 11.8871L23.5862 13.9841L23.0615 13.617Z" fill="white"/>
<path d="M95.6636 18.752L103.383 1.28H108.255L116 18.752H110.853L104.808 3.70112H106.756L100.71 18.752H95.6636ZM99.8858 15.3574L101.16 11.7133H109.704L110.978 15.3574H99.8858Z" fill="white"/>
<path d="M89.3263 1.28H94.273V18.752H89.3263V1.28ZM82.5808 18.752H77.6341V1.28H82.5808V18.752ZM89.676 11.9379H82.231V7.84448H89.676V11.9379Z" fill="white"/>
<path d="M55.8954 18.752L63.6152 1.28H68.4869L76.2317 18.752H71.0852L65.0392 3.70112H66.9879L60.942 18.752H55.8954ZM60.1175 15.3574L61.3917 11.7133H69.936L71.2101 15.3574H60.1175Z" fill="white"/>
<path d="M44.4593 14.8832L44.1845 9.34208L51.7044 1.28H57.1508L49.6558 9.392L46.9077 12.2624L44.4593 14.8832ZM40.0373 18.752V1.28H44.934V18.752H40.0373ZM51.7794 18.752L46.0832 11.5386L49.306 8.09408L57.5255 18.752H51.7794Z" fill="white"/>
<path d="M43.2761 30.8634C42.6885 30.8634 42.1213 30.7917 41.5747 30.6483C41.0349 30.4981 40.5942 30.307 40.2525 30.0749L40.9187 28.5798C41.2399 28.7846 41.6089 28.9553 42.0257 29.0918C42.4493 29.2215 42.8695 29.2864 43.2864 29.2864C43.5665 29.2864 43.792 29.2625 43.9628 29.2147C44.1337 29.1601 44.2567 29.0918 44.3318 29.0099C44.4138 28.9212 44.4548 28.8188 44.4548 28.7027C44.4548 28.5389 44.3796 28.4092 44.2293 28.3136C44.079 28.218 43.8843 28.1395 43.6451 28.0781C43.4059 28.0166 43.1395 27.9552 42.8456 27.8938C42.5586 27.8323 42.2682 27.7538 41.9744 27.6582C41.6874 27.5627 41.4244 27.4398 41.1852 27.2896C40.9461 27.1326 40.7513 26.9312 40.601 26.6854C40.4507 26.4329 40.3755 26.1154 40.3755 25.7331C40.3755 25.303 40.4917 24.9139 40.724 24.5658C40.9631 24.2176 41.3185 23.9377 41.7899 23.7261C42.2614 23.5145 42.849 23.4086 43.5528 23.4086C44.0243 23.4086 44.4856 23.4633 44.9365 23.5725C45.3944 23.6749 45.8009 23.8285 46.1562 24.0333L45.531 25.5386C45.1894 25.3542 44.8511 25.2177 44.5163 25.129C44.1815 25.0334 43.8569 24.9856 43.5426 24.9856C43.2624 24.9856 43.037 25.0163 42.8661 25.0778C42.6953 25.1324 42.5723 25.2075 42.4971 25.303C42.422 25.3986 42.3844 25.5078 42.3844 25.6307C42.3844 25.7877 42.4562 25.914 42.5996 26.0096C42.75 26.0983 42.9447 26.1734 43.1839 26.2349C43.4299 26.2895 43.6963 26.3475 43.9833 26.409C44.2772 26.4704 44.5676 26.5489 44.8545 26.6445C45.1484 26.7332 45.4149 26.8561 45.654 27.0131C45.8932 27.1633 46.0845 27.3647 46.228 27.6173C46.3783 27.863 46.4535 28.1737 46.4535 28.5491C46.4535 28.9655 46.3339 29.3513 46.0947 29.7062C45.8624 30.0544 45.5105 30.3343 45.039 30.5459C44.5744 30.7575 43.9867 30.8634 43.2761 30.8634Z" fill="white"/>
<path d="M51.009 30.8634C50.435 30.8634 49.9055 30.7712 49.4203 30.5869C48.9352 30.4026 48.5115 30.1431 48.1494 29.8086C47.7941 29.4673 47.5173 29.0714 47.3192 28.6208C47.121 28.1702 47.0219 27.6753 47.0219 27.136C47.0219 26.5967 47.121 26.1018 47.3192 25.6512C47.5173 25.2006 47.7941 24.8081 48.1494 24.4736C48.5115 24.1323 48.9352 23.8694 49.4203 23.6851C49.9055 23.5008 50.435 23.4086 51.009 23.4086C51.5898 23.4086 52.1194 23.5008 52.5977 23.6851C53.0828 23.8694 53.503 24.1323 53.8584 24.4736C54.2137 24.8081 54.4904 25.2006 54.6886 25.6512C54.8936 26.1018 54.9961 26.5967 54.9961 27.136C54.9961 27.6753 54.8936 28.1737 54.6886 28.631C54.4904 29.0816 54.2137 29.4741 53.8584 29.8086C53.503 30.1431 53.0828 30.4026 52.5977 30.5869C52.1194 30.7712 51.5898 30.8634 51.009 30.8634ZM51.009 29.184C51.2823 29.184 51.5351 29.1362 51.7675 29.0406C52.0066 28.9451 52.2116 28.8085 52.3824 28.631C52.5601 28.4467 52.6968 28.2283 52.7924 27.9757C52.8949 27.7231 52.9462 27.4432 52.9462 27.136C52.9462 26.822 52.8949 26.5421 52.7924 26.2963C52.6968 26.0437 52.5601 25.8287 52.3824 25.6512C52.2116 25.4669 52.0066 25.3269 51.7675 25.2314C51.5351 25.1358 51.2823 25.088 51.009 25.088C50.7357 25.088 50.4794 25.1358 50.2403 25.2314C50.008 25.3269 49.803 25.4669 49.6253 25.6512C49.4545 25.8287 49.3178 26.0437 49.2153 26.2963C49.1197 26.5421 49.0718 26.822 49.0718 27.136C49.0718 27.4432 49.1197 27.7231 49.2153 27.9757C49.3178 28.2283 49.4545 28.4467 49.6253 28.631C49.803 28.8085 50.008 28.9451 50.2403 29.0406C50.4794 29.1362 50.7357 29.184 51.009 29.184Z" fill="white"/>
<path d="M56.059 30.72V23.552H58.0884V29.1123H61.5117V30.72H56.059Z" fill="white"/>
<path d="M65.5553 30.8634C64.4962 30.8634 63.6694 30.5732 63.0749 29.993C62.4805 29.4127 62.1832 28.5901 62.1832 27.5251V23.552H64.2126V27.4637C64.2126 28.0781 64.3322 28.5184 64.5714 28.7846C64.8174 29.0509 65.1522 29.184 65.5758 29.184C65.9995 29.184 66.3309 29.0509 66.57 28.7846C66.8092 28.5184 66.9288 28.0781 66.9288 27.4637V23.552H68.9274V27.5251C68.9274 28.5901 68.6302 29.4127 68.0357 29.993C67.4412 30.5732 66.6144 30.8634 65.5553 30.8634Z" fill="white"/>
<path d="M71.7193 30.72V25.1597H69.5157V23.552H75.9421V25.1597H73.7487V30.72H71.7193Z" fill="white"/>
<path d="M76.6982 30.72V23.552H78.7276V30.72H76.6982Z" fill="white"/>
<path d="M83.7895 30.8634C83.2155 30.8634 82.686 30.7712 82.2008 30.5869C81.7157 30.4026 81.292 30.1431 80.9299 29.8086C80.5746 29.4673 80.2978 29.0714 80.0997 28.6208C79.9015 28.1702 79.8024 27.6753 79.8024 27.136C79.8024 26.5967 79.9015 26.1018 80.0997 25.6512C80.2978 25.2006 80.5746 24.8081 80.9299 24.4736C81.292 24.1323 81.7157 23.8694 82.2008 23.6851C82.686 23.5008 83.2155 23.4086 83.7895 23.4086C84.3703 23.4086 84.8999 23.5008 85.3782 23.6851C85.8633 23.8694 86.2836 24.1323 86.6389 24.4736C86.9942 24.8081 87.2709 25.2006 87.4691 25.6512C87.6741 26.1018 87.7766 26.5967 87.7766 27.136C87.7766 27.6753 87.6741 28.1737 87.4691 28.631C87.2709 29.0816 86.9942 29.4741 86.6389 29.8086C86.2836 30.1431 85.8633 30.4026 85.3782 30.5869C84.8999 30.7712 84.3703 30.8634 83.7895 30.8634ZM83.7895 29.184C84.0628 29.184 84.3156 29.1362 84.548 29.0406C84.7871 28.9451 84.9921 28.8085 85.1629 28.631C85.3406 28.4467 85.4772 28.2283 85.5729 27.9757C85.6754 27.7231 85.7267 27.4432 85.7267 27.136C85.7267 26.822 85.6754 26.5421 85.5729 26.2963C85.4772 26.0437 85.3406 25.8287 85.1629 25.6512C84.9921 25.4669 84.7871 25.3269 84.548 25.2314C84.3156 25.1358 84.0628 25.088 83.7895 25.088C83.5162 25.088 83.2599 25.1358 83.0208 25.2314C82.7885 25.3269 82.5835 25.4669 82.4058 25.6512C82.235 25.8287 82.0983 26.0437 81.9958 26.2963C81.9002 26.5421 81.8523 26.822 81.8523 27.136C81.8523 27.4432 81.9002 27.7231 81.9958 27.9757C82.0983 28.2283 82.235 28.4467 82.4058 28.631C82.5835 28.8085 82.7885 28.9451 83.0208 29.0406C83.2599 29.1362 83.5162 29.184 83.7895 29.184Z" fill="white"/>
<path d="M88.8395 30.72V23.552H90.5101L94.4665 28.3238H93.6773V23.552H95.6657V30.72H93.995L90.0387 25.9482H90.8279V30.72H88.8395Z" fill="white"/>
</svg>
