<svg width="116" height="32" viewBox="0 0 116 32" fill="none" xmlns="http://www.w3.org/2000/svg">
<path d="M0 6.4C0 2.86538 2.86805 0 6.40596 0H25.6238C29.1618 0 32.0298 2.86538 32.0298 6.4V25.6C32.0298 29.1346 29.1618 32 25.6238 32H6.40596C2.86805 32 0 29.1346 0 25.6V6.4Z" fill="#0E2144"/>
<path d="M5.12477 8.32H9.73706V23.68H5.12477V8.32Z" fill="white"/>
<path d="M9.73709 12.8953C11.1504 12.8953 12.5499 13.1742 13.8557 13.7162C15.1613 14.2581 16.3478 15.0525 17.3471 16.0539C18.3465 17.0554 19.1391 18.2443 19.68 19.5528C20.2208 20.8612 20.4991 22.2637 20.4991 23.68H14.3028C14.3028 23.0792 14.1848 22.4842 13.9553 21.9291C13.7259 21.374 13.3895 20.8696 12.9655 20.4448C12.5415 20.0199 12.0382 19.6828 11.4843 19.4529C10.9303 19.223 10.3366 19.1047 9.73709 19.1047V12.8953Z" fill="white" fill-opacity="0.7"/>
<path d="M20.4991 8.32C20.4991 9.73626 20.2208 11.1388 19.68 12.4472C19.1391 13.7557 18.3464 14.9446 17.3471 15.9461C16.3478 16.9475 15.1613 17.7418 13.8556 18.2838C12.5499 18.8258 11.1504 19.1047 9.73709 19.1047V12.8953C10.3366 12.8953 10.9303 12.777 11.4842 12.5471C12.0382 12.3172 12.5415 11.9801 12.9655 11.5552C13.3894 11.1304 13.7259 10.626 13.9553 10.0709C14.1847 9.51577 14.3028 8.92081 14.3028 8.32H20.4991Z" fill="white"/>
<path d="M23.0615 16C23.0615 16.7069 22.4879 17.28 21.7803 17.28C21.0727 17.28 20.4991 16.7069 20.4991 16C20.4991 15.2931 21.0727 14.72 21.7803 14.72C22.4879 14.72 23.0615 15.2931 23.0615 16Z" fill="white"/>
<path d="M24.3427 15.68H26.905V16.32H24.3427V15.68Z" fill="white"/>
<path d="M23.097 18.2661L24.5668 20.3632L25.0915 19.9961L23.6218 17.899L23.097 18.2661Z" fill="white"/>
<path d="M23.0615 13.617L24.5312 11.52L25.0559 11.8871L23.5862 13.9841L23.0615 13.617Z" fill="white"/>
<path d="M95.6636 18.752L103.383 1.28H108.255L116 18.752H110.853L104.807 3.70112H106.756L100.71 18.752H95.6636ZM99.8857 15.3574L101.16 11.7133H109.704L110.978 15.3574H99.8857Z" fill="#0E2144"/>
<path d="M89.3262 1.28H94.2729V18.752H89.3262V1.28ZM82.5807 18.752H77.634V1.28H82.5807V18.752ZM89.676 11.9379H82.231V7.84448H89.676V11.9379Z" fill="#0E2144"/>
<path d="M55.8954 18.752L63.6152 1.28H68.4869L76.2318 18.752H71.0852L65.0393 3.70112H66.9879L60.942 18.752H55.8954ZM60.1176 15.3574L61.3917 11.7133H69.936L71.2101 15.3574H60.1176Z" fill="#0E2144"/>
<path d="M44.4593 14.8832L44.1845 9.34208L51.7044 1.28H57.1508L49.6558 9.392L46.9076 12.2624L44.4593 14.8832ZM40.0372 18.752V1.28H44.9339V18.752H40.0372ZM51.7794 18.752L46.0832 11.5386L49.306 8.09408L57.5255 18.752H51.7794Z" fill="#0E2144"/>
<path d="M43.2761 30.8634C42.6884 30.8634 42.1213 30.7917 41.5746 30.6483C41.0348 30.4981 40.5941 30.307 40.2524 30.0749L40.9187 28.5798C41.2398 28.7846 41.6088 28.9553 42.0256 29.0918C42.4493 29.2215 42.8695 29.2864 43.2863 29.2864C43.5665 29.2864 43.7919 29.2625 43.9628 29.2147C44.1336 29.1601 44.2566 29.0918 44.3318 29.0099C44.4138 28.9212 44.4548 28.8188 44.4548 28.7027C44.4548 28.5389 44.3796 28.4092 44.2293 28.3136C44.0789 28.218 43.8842 28.1395 43.645 28.0781C43.4059 28.0166 43.1394 27.9552 42.8456 27.8938C42.5586 27.8323 42.2682 27.7538 41.9744 27.6582C41.6874 27.5627 41.4243 27.4398 41.1851 27.2896C40.946 27.1326 40.7513 26.9312 40.6009 26.6854C40.4506 26.4329 40.3754 26.1154 40.3754 25.7331C40.3754 25.303 40.4916 24.9139 40.7239 24.5658C40.9631 24.2176 41.3184 23.9377 41.7899 23.7261C42.2614 23.5145 42.849 23.4086 43.5528 23.4086C44.0243 23.4086 44.4855 23.4633 44.9365 23.5725C45.3943 23.6749 45.8009 23.8285 46.1562 24.0333L45.531 25.5386C45.1893 25.3542 44.8511 25.2177 44.5162 25.129C44.1814 25.0334 43.8569 24.9856 43.5425 24.9856C43.2624 24.9856 43.0369 25.0163 42.8661 25.0778C42.6952 25.1324 42.5723 25.2075 42.4971 25.303C42.4219 25.3986 42.3843 25.5078 42.3843 25.6307C42.3843 25.7877 42.4561 25.914 42.5996 26.0096C42.7499 26.0983 42.9447 26.1734 43.1838 26.2349C43.4298 26.2895 43.6963 26.3475 43.9833 26.409C44.2771 26.4704 44.5675 26.5489 44.8545 26.6445C45.1483 26.7332 45.4148 26.8561 45.6539 27.0131C45.8931 27.1633 46.0844 27.3647 46.2279 27.6173C46.3782 27.863 46.4534 28.1737 46.4534 28.5491C46.4534 28.9655 46.3338 29.3513 46.0947 29.7062C45.8624 30.0544 45.5105 30.3343 45.039 30.5459C44.5743 30.7575 43.9867 30.8634 43.2761 30.8634Z" fill="#0E2144"/>
<path d="M51.0089 30.8634C50.435 30.8634 49.9054 30.7712 49.4203 30.5869C48.9351 30.4026 48.5115 30.1431 48.1493 29.8086C47.794 29.4673 47.5173 29.0714 47.3191 28.6208C47.1209 28.1702 47.0219 27.6753 47.0219 27.136C47.0219 26.5967 47.1209 26.1018 47.3191 25.6512C47.5173 25.2006 47.794 24.8081 48.1493 24.4736C48.5115 24.1323 48.9351 23.8694 49.4203 23.6851C49.9054 23.5008 50.435 23.4086 51.0089 23.4086C51.5897 23.4086 52.1193 23.5008 52.5976 23.6851C53.0828 23.8694 53.503 24.1323 53.8583 24.4736C54.2136 24.8081 54.4904 25.2006 54.6885 25.6512C54.8935 26.1018 54.996 26.5967 54.996 27.136C54.996 27.6753 54.8935 28.1737 54.6885 28.631C54.4904 29.0816 54.2136 29.4741 53.8583 29.8086C53.503 30.1431 53.0828 30.4026 52.5976 30.5869C52.1193 30.7712 51.5897 30.8634 51.0089 30.8634ZM51.0089 29.184C51.2823 29.184 51.5351 29.1362 51.7674 29.0406C52.0066 28.9451 52.2115 28.8085 52.3824 28.631C52.56 28.4467 52.6967 28.2283 52.7924 27.9757C52.8948 27.7231 52.9461 27.4432 52.9461 27.136C52.9461 26.822 52.8948 26.5421 52.7924 26.2963C52.6967 26.0437 52.56 25.8287 52.3824 25.6512C52.2115 25.4669 52.0066 25.3269 51.7674 25.2314C51.5351 25.1358 51.2823 25.088 51.0089 25.088C50.7356 25.088 50.4794 25.1358 50.2402 25.2314C50.0079 25.3269 49.8029 25.4669 49.6252 25.6512C49.4544 25.8287 49.3178 26.0437 49.2153 26.2963C49.1196 26.5421 49.0718 26.822 49.0718 27.136C49.0718 27.4432 49.1196 27.7231 49.2153 27.9757C49.3178 28.2283 49.4544 28.4467 49.6252 28.631C49.8029 28.8085 50.0079 28.9451 50.2402 29.0406C50.4794 29.1362 50.7356 29.184 51.0089 29.184Z" fill="#0E2144"/>
<path d="M56.0589 30.72V23.552H58.0883V29.1123H61.5117V30.72H56.0589Z" fill="#0E2144"/>
<path d="M65.5553 30.8634C64.4961 30.8634 63.6694 30.5732 63.0749 29.993C62.4804 29.4127 62.1832 28.5901 62.1832 27.5251V23.552H64.2126V27.4637C64.2126 28.0781 64.3322 28.5184 64.5713 28.7846C64.8173 29.0509 65.1521 29.184 65.5758 29.184C65.9994 29.184 66.3308 29.0509 66.57 28.7846C66.8091 28.5184 66.9287 28.0781 66.9287 27.4637V23.552H68.9274V27.5251C68.9274 28.5901 68.6301 29.4127 68.0357 29.993C67.4412 30.5732 66.6144 30.8634 65.5553 30.8634Z" fill="#0E2144"/>
<path d="M71.7192 30.72V25.1597H69.5156V23.552H75.9421V25.1597H73.7487V30.72H71.7192Z" fill="#0E2144"/>
<path d="M76.6981 30.72V23.552H78.7275V30.72H76.6981Z" fill="#0E2144"/>
<path d="M83.7894 30.8634C83.2155 30.8634 82.6859 30.7712 82.2008 30.5869C81.7156 30.4026 81.292 30.1431 80.9298 29.8086C80.5745 29.4673 80.2978 29.0714 80.0996 28.6208C79.9014 28.1702 79.8024 27.6753 79.8024 27.136C79.8024 26.5967 79.9014 26.1018 80.0996 25.6512C80.2978 25.2006 80.5745 24.8081 80.9298 24.4736C81.292 24.1323 81.7156 23.8694 82.2008 23.6851C82.6859 23.5008 83.2155 23.4086 83.7894 23.4086C84.3702 23.4086 84.8998 23.5008 85.3781 23.6851C85.8633 23.8694 86.2835 24.1323 86.6388 24.4736C86.9941 24.8081 87.2709 25.2006 87.469 25.6512C87.674 26.1018 87.7765 26.5967 87.7765 27.136C87.7765 27.6753 87.674 28.1737 87.469 28.631C87.2709 29.0816 86.9941 29.4741 86.6388 29.8086C86.2835 30.1431 85.8633 30.4026 85.3781 30.5869C84.8998 30.7712 84.3702 30.8634 83.7894 30.8634ZM83.7894 29.184C84.0628 29.184 84.3156 29.1362 84.5479 29.0406C84.7871 28.9451 84.9921 28.8085 85.1629 28.631C85.3405 28.4467 85.4772 28.2283 85.5729 27.9757C85.6754 27.7231 85.7266 27.4432 85.7266 27.136C85.7266 26.822 85.6754 26.5421 85.5729 26.2963C85.4772 26.0437 85.3405 25.8287 85.1629 25.6512C84.9921 25.4669 84.7871 25.3269 84.5479 25.2314C84.3156 25.1358 84.0628 25.088 83.7894 25.088C83.5161 25.088 83.2599 25.1358 83.0207 25.2314C82.7884 25.3269 82.5834 25.4669 82.4058 25.6512C82.2349 25.8287 82.0983 26.0437 81.9958 26.2963C81.9001 26.5421 81.8523 26.822 81.8523 27.136C81.8523 27.4432 81.9001 27.7231 81.9958 27.9757C82.0983 28.2283 82.2349 28.4467 82.4058 28.631C82.5834 28.8085 82.7884 28.9451 83.0207 29.0406C83.2599 29.1362 83.5161 29.184 83.7894 29.184Z" fill="#0E2144"/>
<path d="M88.8394 30.72V23.552H90.5101L94.4664 28.3238H93.6772V23.552H95.6656V30.72H93.9949L90.0386 25.9482H90.8278V30.72H88.8394Z" fill="#0E2144"/>
</svg>
