<svg width="174" height="48" viewBox="0 0 174 48" fill="none" xmlns="http://www.w3.org/2000/svg">
<path d="M0 9.6C0 4.29807 4.30207 0 9.60894 0H38.4358C43.7426 0 48.0447 4.29807 48.0447 9.6V38.4C48.0447 43.7019 43.7426 48 38.4358 48H9.60894C4.30207 48 0 43.7019 0 38.4V9.6Z" fill="white"/>
<path d="M7.68715 12.48H14.6056V35.52H7.68715V12.48Z" fill="#2C2C2C"/>
<path d="M14.6056 19.343C16.7256 19.343 18.8249 19.7613 20.7835 20.5743C22.742 21.3872 24.5217 22.5788 26.0207 24.0809C27.5197 25.5831 28.7087 27.3665 29.52 29.3291C30.3312 31.2918 30.7487 33.3956 30.7487 35.52H21.4542C21.4542 34.6188 21.2771 33.7263 20.933 32.8937C20.5888 32.0611 20.0842 31.3045 19.4483 30.6672C18.8123 30.0299 18.0573 29.5242 17.2264 29.1793C16.3955 28.8344 15.505 28.657 14.6056 28.657V19.343Z" fill="#2C2C2C"/>
<path d="M30.7486 12.48C30.7486 14.6044 30.3312 16.7082 29.5199 18.6709C28.7087 20.6335 27.5196 22.4169 26.0206 23.9191C24.5217 25.4212 22.742 26.6128 20.7834 27.4257C18.8249 28.2387 16.7256 28.657 14.6056 28.657V19.343C15.505 19.343 16.3955 19.1656 17.2263 18.8207C18.0573 18.4758 18.8123 17.9701 19.4482 17.3328C20.0842 16.6955 20.5888 15.9389 20.933 15.1063C21.2771 14.2737 21.4541 13.3812 21.4541 12.48H30.7486Z" fill="#2C2C2C"/>
<path d="M34.5922 24C34.5922 25.0604 33.7318 25.92 32.6704 25.92C31.609 25.92 30.7486 25.0604 30.7486 24C30.7486 22.9396 31.609 22.08 32.6704 22.08C33.7318 22.08 34.5922 22.9396 34.5922 24Z" fill="#2C2C2C"/>
<path d="M36.514 23.52H40.3576V24.48H36.514V23.52Z" fill="#2C2C2C"/>
<path d="M34.6456 27.3992L36.8501 30.5447L37.6373 29.9941L35.4327 26.8485L34.6456 27.3992Z" fill="#2C2C2C"/>
<path d="M34.5922 20.4255L36.7968 17.28L37.5839 17.8306L35.3793 20.9762L34.5922 20.4255Z" fill="#2C2C2C"/>
<path d="M143.495 28.1279L155.075 1.91992H162.383L174 28.1279H166.28L157.211 5.5516H160.134L151.065 28.1279H143.495ZM149.829 23.0361L151.74 17.5698H164.556L166.468 23.0361H149.829Z" fill="white"/>
<path d="M133.989 1.91992H141.41V28.1279H133.989V1.91992ZM123.871 28.1279H116.451V1.91992H123.871V28.1279ZM134.514 17.9068H123.347V11.7666H134.514V17.9068Z" fill="white"/>
<path d="M83.8431 28.1279L95.4229 1.91992H102.73L114.348 28.1279H106.628L97.5589 5.5516H100.482L91.4131 28.1279H83.8431ZM90.1764 23.0361L92.0876 17.5698H104.904L106.815 23.0361H90.1764Z" fill="white"/>
<path d="M66.689 22.3247L66.2768 14.013L77.5567 1.91992H85.7262L74.4838 14.0879L70.3615 18.3935L66.689 22.3247ZM60.0559 28.1279V1.91992H67.401V28.1279H60.0559ZM77.6691 28.1279L69.1249 17.3078L73.9591 12.141L86.2884 28.1279H77.6691Z" fill="white"/>
<path d="M64.9143 46.2949C64.0328 46.2949 63.1821 46.1874 62.3621 45.9723C61.5524 45.747 60.8913 45.4603 60.3788 45.1122L61.3782 42.8696C61.8599 43.1768 62.4134 43.4328 63.0386 43.6376C63.6741 43.8322 64.3044 43.9294 64.9296 43.9294C65.3499 43.9294 65.6881 43.8936 65.9443 43.8219C66.2006 43.74 66.3851 43.6376 66.4978 43.5147C66.6208 43.3816 66.6823 43.228 66.6823 43.0539C66.6823 42.8082 66.5696 42.6136 66.3441 42.4702C66.1186 42.3269 65.8265 42.2091 65.4677 42.117C65.109 42.0248 64.7093 41.9326 64.2685 41.8405C63.8381 41.7483 63.4025 41.6306 62.9617 41.4872C62.5312 41.3438 62.1366 41.1595 61.7779 40.9342C61.4192 40.6987 61.1271 40.3966 60.9016 40.028C60.6761 39.6491 60.5633 39.173 60.5633 38.5995C60.5633 37.9544 60.7376 37.3707 61.0861 36.8485C61.4448 36.3262 61.9778 35.9064 62.685 35.589C63.3922 35.2715 64.2737 35.1128 65.3294 35.1128C66.0366 35.1128 66.7284 35.1947 67.4049 35.3586C68.0916 35.5122 68.7015 35.7426 69.2344 36.0498L68.2966 38.3077C67.7841 38.0312 67.2768 37.8264 66.7745 37.6933C66.2723 37.5499 65.7855 37.4782 65.314 37.4782C64.8938 37.4782 64.5555 37.5243 64.2993 37.6165C64.043 37.6984 63.8586 37.811 63.7458 37.9544C63.6331 38.0978 63.5767 38.2616 63.5767 38.4459C63.5767 38.6814 63.6843 38.8709 63.8996 39.0142C64.125 39.1474 64.4172 39.26 64.7759 39.3522C65.1449 39.4341 65.5446 39.5211 65.9751 39.6133C66.4158 39.7054 66.8514 39.8232 67.2819 39.9666C67.7226 40.0997 68.1224 40.284 68.4811 40.5195C68.8398 40.7448 69.1268 41.0469 69.3421 41.4258C69.5675 41.7944 69.6803 42.2603 69.6803 42.8235C69.6803 43.4482 69.5009 44.0267 69.1422 44.5592C68.7937 45.0814 68.2659 45.5013 67.5586 45.8187C66.8617 46.1362 65.9802 46.2949 64.9143 46.2949Z" fill="white"/>
<path d="M76.5136 46.2949C75.6526 46.2949 74.8583 46.1566 74.1306 45.8802C73.4028 45.6037 72.7674 45.2146 72.2241 44.7128C71.6912 44.2008 71.2761 43.6069 70.9788 42.931C70.6816 42.2552 70.533 41.5128 70.533 40.7038C70.533 39.8949 70.6816 39.1525 70.9788 38.4766C71.2761 37.8008 71.6912 37.212 72.2241 36.7102C72.7674 36.1982 73.4028 35.804 74.1306 35.5275C74.8583 35.251 75.6526 35.1128 76.5136 35.1128C77.3848 35.1128 78.1791 35.251 78.8966 35.5275C79.6243 35.804 80.2547 36.1982 80.7876 36.7102C81.3206 37.212 81.7357 37.8008 82.0329 38.4766C82.3404 39.1525 82.4942 39.8949 82.4942 40.7038C82.4942 41.5128 82.3404 42.2603 82.0329 42.9464C81.7357 43.6222 81.3206 44.211 80.7876 44.7128C80.2547 45.2146 79.6243 45.6037 78.8966 45.8802C78.1791 46.1566 77.3848 46.2949 76.5136 46.2949ZM76.5136 43.7758C76.9236 43.7758 77.3028 43.7042 77.6513 43.5608C78.01 43.4174 78.3175 43.2126 78.5737 42.9464C78.8402 42.6699 79.0452 42.3422 79.1887 41.9634C79.3424 41.5845 79.4193 41.1646 79.4193 40.7038C79.4193 40.2328 79.3424 39.813 79.1887 39.4443C79.0452 39.0654 78.8402 38.7429 78.5737 38.4766C78.3175 38.2002 78.01 37.9902 77.6513 37.8469C77.3028 37.7035 76.9236 37.6318 76.5136 37.6318C76.1036 37.6318 75.7192 37.7035 75.3605 37.8469C75.012 37.9902 74.7045 38.2002 74.438 38.4766C74.1818 38.7429 73.9768 39.0654 73.8231 39.4443C73.6796 39.813 73.6078 40.2328 73.6078 40.7038C73.6078 41.1646 73.6796 41.5845 73.8231 41.9634C73.9768 42.3422 74.1818 42.6699 74.438 42.9464C74.7045 43.2126 75.012 43.4174 75.3605 43.5608C75.7192 43.7042 76.1036 43.7758 76.5136 43.7758Z" fill="white"/>
<path d="M84.0885 46.0798V35.3278H87.1327V43.6683H92.2677V46.0798H84.0885Z" fill="white"/>
<path d="M98.3331 46.2949C96.7444 46.2949 95.5042 45.8597 94.6125 44.9893C93.7208 44.1189 93.2749 42.885 93.2749 41.2875V35.3278H96.319V41.1954C96.319 42.117 96.4984 42.7774 96.8571 43.1768C97.2261 43.5762 97.7284 43.7758 98.3638 43.7758C98.9993 43.7758 99.4964 43.5762 99.8551 43.1768C100.214 42.7774 100.393 42.117 100.393 41.1954V35.3278H103.391V41.2875C103.391 42.885 102.945 44.1189 102.054 44.9893C101.162 45.8597 99.9218 46.2949 98.3331 46.2949Z" fill="white"/>
<path d="M107.579 46.0798V37.7394H104.274V35.3278H113.913V37.7394H110.623V46.0798H107.579Z" fill="white"/>
<path d="M115.047 46.0798V35.3278H118.091V46.0798H115.047Z" fill="white"/>
<path d="M125.684 46.2949C124.823 46.2949 124.029 46.1566 123.301 45.8802C122.574 45.6037 121.938 45.2146 121.395 44.7128C120.862 44.2008 120.447 43.6069 120.15 42.931C119.852 42.2552 119.704 41.5128 119.704 40.7038C119.704 39.8949 119.852 39.1525 120.15 38.4766C120.447 37.8008 120.862 37.212 121.395 36.7102C121.938 36.1982 122.574 35.804 123.301 35.5275C124.029 35.251 124.823 35.1128 125.684 35.1128C126.556 35.1128 127.35 35.251 128.067 35.5275C128.795 35.804 129.425 36.1982 129.958 36.7102C130.491 37.212 130.906 37.8008 131.204 38.4766C131.511 39.1525 131.665 39.8949 131.665 40.7038C131.665 41.5128 131.511 42.2603 131.204 42.9464C130.906 43.6222 130.491 44.211 129.958 44.7128C129.425 45.2146 128.795 45.6037 128.067 45.8802C127.35 46.1566 126.556 46.2949 125.684 46.2949ZM125.684 43.7758C126.094 43.7758 126.474 43.7042 126.822 43.5608C127.181 43.4174 127.488 43.2126 127.744 42.9464C128.011 42.6699 128.216 42.3422 128.359 41.9634C128.513 41.5845 128.59 41.1646 128.59 40.7038C128.59 40.2328 128.513 39.813 128.359 39.4443C128.216 39.0654 128.011 38.7429 127.744 38.4766C127.488 38.2002 127.181 37.9902 126.822 37.8469C126.474 37.7035 126.094 37.6318 125.684 37.6318C125.274 37.6318 124.89 37.7035 124.531 37.8469C124.183 37.9902 123.875 38.2002 123.609 38.4766C123.353 38.7429 123.148 39.0654 122.994 39.4443C122.85 39.813 122.779 40.2328 122.779 40.7038C122.779 41.1646 122.85 41.5845 122.994 41.9634C123.148 42.3422 123.353 42.6699 123.609 42.9464C123.875 43.2126 124.183 43.4174 124.531 43.5608C124.89 43.7042 125.274 43.7758 125.684 43.7758Z" fill="white"/>
<path d="M133.259 46.0798V35.3278H135.765L141.7 42.4856H140.516V35.3278H143.499V46.0798H140.993L135.058 38.9221H136.242V46.0798H133.259Z" fill="white"/>
</svg>
